<svg id="Layer_1" viewBox="0 0 24 24" xmlns="http://www.w3.org/2000/svg" data-name="Layer 1"><path d="m12.41.012c-2.528-.146-4.932 1.084-6.294 3.204-.479.746-.507 1.665-.074 2.458.447.818 1.298 1.327 2.222 1.327.823 0 1.587-.417 2.096-1.145.505-.722 1.394-1.02 2.264-.762.618.185 1.128.709 1.299 1.338.172.632.051 1.281-.333 1.782-.382.5-.961.787-1.59.787h-2.5c-2.481 0-4.5 2.019-4.5 4.5v6c0 2.481 2.019 4.5 4.5 4.5h5c2.481 0 4.5-2.019 4.5-4.5v-12.249c0-3.849-2.895-7.029-6.59-7.24zm5.59 19.488c0 1.93-1.57 3.5-3.5 3.5h-5c-1.93 0-3.5-1.57-3.5-3.5v-6c0-1.93 1.57-3.5 3.5-3.5h2.5c.942 0 1.812-.43 2.384-1.179.574-.75.757-1.717.503-2.652-.263-.97-1.021-1.749-1.978-2.034-1.29-.386-2.613.067-3.369 1.147-.319.457-.785.718-1.277.718-.558 0-1.073-.309-1.345-.806-.255-.467-.241-1.004.038-1.438 1.169-1.817 3.243-2.861 5.396-2.747 3.167.181 5.647 2.923 5.647 6.242v12.248z"/></svg>