<?xml version="1.0" encoding="UTF-8"?>
<svg xmlns="http://www.w3.org/2000/svg" id="Layer_1" data-name="Layer 1" viewBox="0 0 24 24">
  <path d="m17,10h-3c-1.654,0-3,1.346-3,3v1h-1.278c.172-.295.278-.634.278-1,0-1.103-.897-2-2-2s-2,.897-2,2c0,.366.106.705.278,1h-1.278v-3.5c0-.276-.224-.5-.5-.5s-.5.224-.5.5v13c0,.276.224.5.5.5s.5-.224.5-.5v-1.5h14v1.5c0,.276.224.5.5.5s.5-.224.5-.5v-10.5c0-1.654-1.346-3-3-3Zm-5,3c0-1.103.897-2,2-2h3c1.103,0,2,.897,2,2v1h-7v-1Zm-5,0c0-.551.449-1,1-1s1,.449,1,1-.449,1-1,1-1-.449-1-1Zm-2,2h14v2h-4.5c-1.654,0-3,1.346-3,3v1h-1.778c.172-.295.278-.634.278-1,0-1.103-.897-2-2-2s-2,.897-2,2c0,.366.106.705.278,1h-1.278v-6Zm2,5c0-.551.449-1,1-1s1,.449,1,1-.449,1-1,1-1-.449-1-1Zm5.5,1v-1c0-1.103.897-2,2-2h4.5v3h-6.5Zm11.5-11.439v13.939c0,.276-.224.5-.5.5s-.5-.224-.5-.5v-13.939c0-1.166-.576-2.25-1.542-2.901L13.958,1.599c-1.189-.803-2.726-.803-3.916,0L2.542,6.66c-.966.652-1.542,1.736-1.542,2.901v13.939c0,.276-.224.5-.5.5s-.5-.224-.5-.5v-13.939c0-1.498.741-2.893,1.983-3.73L9.483.77c1.53-1.031,3.505-1.03,5.034,0l7.5,5.061c1.242.837,1.983,2.232,1.983,3.73Z"/>
</svg>
