<svg id="Layer_1" viewBox="0 0 24 24" xmlns="http://www.w3.org/2000/svg" data-name="Layer 1"><path d="m21 16.5c0-2.481-2.019-4.5-4.5-4.5s-4.5 2.019-4.5 4.5 2.019 4.5 4.5 4.5c1.06 0 2.023-.384 2.793-1l3.605 3.605.707-.707-3.605-3.605c.616-.77 1-1.733 1-2.793zm-4.5 3.5c-1.93 0-3.5-1.57-3.5-3.5s1.57-3.5 3.5-3.5 3.5 1.57 3.5 3.5-1.57 3.5-3.5 3.5zm-1.969 2.695c-.753.178-1.535.278-2.338.293-.563-.565-2.716-2.86-4.071-5.988h1.878v-1h-2.269c-.439-1.247-.731-2.593-.731-4s.292-2.753.731-4h8.532c.228.647.417 1.319.544 2.016.352.017.698.054 1.033.125-.115-.74-.295-1.454-.516-2.14h4.911c.487 1.242.764 2.588.764 4 0 .872-.113 1.717-.305 2.531.197.621.305 1.282.305 1.969 0 .106-.011.21-.016.315.649-1.475 1.016-3.102 1.016-4.815.001-6.618-5.382-12.001-11.999-12.001s-12 5.383-12 12 5.383 12 12 12c1.713 0 3.339-.367 4.815-1.016-.105.005-.208.016-.315.016-.687 0-1.348-.108-1.969-.305zm-6.409-15.695c1.229-2.838 3.115-4.99 3.877-5.788.762.801 2.644 2.954 3.87 5.788h-7.748zm13.663 0h-4.822c-1.065-2.668-2.71-4.781-3.727-5.926 3.735.42 6.903 2.719 8.549 5.926zm-11.025-5.925c-1.019 1.144-2.664 3.257-3.731 5.925h-4.815c1.645-3.206 4.812-5.504 8.546-5.925zm-8.996 6.925h4.905c-.404 1.248-.669 2.589-.669 4s.265 2.752.669 4h-4.905c-.487-1.242-.764-2.588-.764-4s.277-2.758.764-4zm.45 9h4.815c1.067 2.669 2.712 4.781 3.731 5.925-3.734-.421-6.901-2.719-8.546-5.925z"/></svg>