<?xml version="1.0" encoding="UTF-8"?>
<svg xmlns="http://www.w3.org/2000/svg" id="Layer_1" data-name="Layer 1" viewBox="0 0 24 24">
  <path d="M8,6h-3v-1h-1v1H1v-1H0v3c0,1.09,.878,1.976,1.963,1.996l-.433,6.065c-.876,.213-1.53,.998-1.53,1.938v2H9v-2c0-.94-.654-1.726-1.53-1.938l-.433-6.065c1.086-.02,1.963-.906,1.963-1.996v-3h-1v1Zm-1.537,10H2.537l.428-6h3.069l.428,6Zm1.537,2v1H1v-1c0-.552,.449-1,1-1H7c.551,0,1,.448,1,1Zm-1-9H2c-.551,0-1-.448-1-1v-1h7v1c0,.552-.449,1-1,1Zm14.5-4c1.378,0,2.5-1.121,2.5-2.5s-1.122-2.5-2.5-2.5-2.5,1.121-2.5,2.5,1.122,2.5,2.5,2.5Zm0-4c.827,0,1.5,.673,1.5,1.5s-.673,1.5-1.5,1.5-1.5-.673-1.5-1.5,.673-1.5,1.5-1.5Zm0,8.5c-1.378,0-2.5,1.121-2.5,2.5s1.122,2.5,2.5,2.5,2.5-1.121,2.5-2.5-1.122-2.5-2.5-2.5Zm0,4c-.827,0-1.5-.673-1.5-1.5s.673-1.5,1.5-1.5,1.5,.673,1.5,1.5-.673,1.5-1.5,1.5Zm0,5.5c-1.378,0-2.5,1.121-2.5,2.5s1.122,2.5,2.5,2.5,2.5-1.121,2.5-2.5-1.122-2.5-2.5-2.5Zm0,4c-.827,0-1.5-.673-1.5-1.5s.673-1.5,1.5-1.5,1.5,.673,1.5,1.5-.673,1.5-1.5,1.5ZM15.5,2h1.5v1h-1.5c-.827,0-1.5,.673-1.5,1.5v7h3v1h-3v7c0,.827,.673,1.5,1.5,1.5h1.5v1h-1.5c-1.378,0-2.5-1.121-2.5-2.5v-7h-3v-1h3V4.5c0-1.379,1.122-2.5,2.5-2.5Z"/>
</svg>
