<?xml version="1.0" encoding="UTF-8"?>
<svg xmlns="http://www.w3.org/2000/svg" id="Layer_1" data-name="Layer 1" viewBox="0 0 24 24">
  <path d="m24,2.608c0-.685-.267-1.329-.751-1.813-.969-.969-2.658-.968-3.626,0l-11.517,11.517c-1.859-.557-3.954-.128-5.419,1.339C.646,15.692.068,23.146.045,23.463l-.043.579.579-.043c.316-.023,7.771-.601,9.812-2.641,1.466-1.466,1.895-3.559,1.339-5.418l11.518-11.518c.484-.484.751-1.128.751-1.813Zm-14.315,18.042c-1.353,1.353-6.21,2.072-8.592,2.3.229-2.382.948-7.239,2.301-8.592.867-.867,2.006-1.301,3.146-1.301s2.279.434,3.146,1.301c1.735,1.735,1.735,4.557,0,6.292ZM22.542,3.714l-11.225,11.225c-.246-.459-.538-.9-.925-1.287-.387-.387-.828-.679-1.287-.925L20.33,1.502c.59-.591,1.62-.592,2.212,0,.295.295.458.688.458,1.106s-.163.811-.458,1.106Z"/>
</svg>
